<svg width="14" height="14" viewBox="0 0 14 14" fill="none" xmlns="http://www.w3.org/2000/svg">
<path d="M8.46 7L13.6976 12.2376C13.8912 12.4312 14 12.6938 14 12.9676C14 13.5378 13.5378 14 12.9676 14C12.6938 14 12.4312 13.8912 12.2376 13.6976L7 8.46L1.76238 13.6976C1.56877 13.8912 1.30618 14 1.03238 14C0.462211 14 0 13.5378 0 12.9676C0 12.6938 0.108768 12.4312 0.302376 12.2376L5.54 7L0.302375 1.76238C0.108767 1.56877 0 1.30618 0 1.03238C0 0.462211 0.462211 0 1.03238 0C1.30618 0 1.56877 0.108768 1.76238 0.302376L7 5.54L12.2376 0.302375C12.4312 0.108767 12.6938 0 12.9676 0C13.5378 0 14 0.462211 14 1.03238C14 1.30618 13.8912 1.56877 13.6976 1.76238L8.46 7Z" fill="black" fill-opacity="0.88"/>
</svg>
