<svg width="22" height="22" viewBox="0 0 22 22" fill="none" xmlns="http://www.w3.org/2000/svg">
<path d="M0.5 17.125V21.5H4.875L17.7783 8.59668L13.4033 4.22168L0.5 17.125ZM21.1617 5.21335C21.2698 5.10541 21.3556 4.97721 21.4142 4.83607C21.4727 4.69494 21.5028 4.54364 21.5028 4.39085C21.5028 4.23805 21.4727 4.08675 21.4142 3.94562C21.3556 3.80448 21.2698 3.67628 21.1617 3.56835L18.4317 0.838347C18.3237 0.730192 18.1955 0.644387 18.0544 0.585842C17.9133 0.527297 17.762 0.497162 17.6092 0.497162C17.4564 0.497162 17.3051 0.527297 17.1639 0.585842C17.0228 0.644387 16.8946 0.730192 16.7867 0.838347L14.6517 2.97335L19.0267 7.34835L21.1617 5.21335Z" fill="black" fill-opacity="0.88"/>
</svg>
