<svg width="20" height="24" viewBox="0 0 20 24" fill="none" xmlns="http://www.w3.org/2000/svg">
<path d="M19.3337 3.33333C19.3337 2.22876 18.438 1.33333 17.3335 1.33333C16.6458 1.33333 15.986 1.33333 15.4948 1.33333C14.9643 1.33333 14.4563 1.12262 14.0812 0.747547L13.3337 0H6.66699L5.91945 0.747546C5.54437 1.12262 5.03567 1.33333 4.50523 1.33333H2.66699C1.56242 1.33333 0.666992 2.22876 0.666992 3.33333V4H19.3337M2.00033 21.3333C2.00033 22.0406 2.28128 22.7189 2.78137 23.219C3.28147 23.719 3.95975 24 4.66699 24H15.3337C16.0409 24 16.7192 23.719 17.2193 23.219C17.7194 22.7189 18.0003 22.0406 18.0003 21.3333V5.33333H2.00033V21.3333Z" fill="black" fill-opacity="0.88"/>
</svg>
